<svg xmlns="http://www.w3.org/2000/svg" xmlns:xlink="http://www.w3.org/1999/xlink" preserveAspectRatio="xMidYMid" width="33" height="29" viewBox="0 0 33 29">
  <defs>
    <style>

      .cls-2 {
        fill: #ea6060;
      }
    </style>
  </defs>
  <path d="M8.981,-0.001 C6.590,-0.001 4.481,0.715 2.726,2.469 C-0.933,6.117 -0.933,12.035 2.726,15.686 C3.770,16.730 14.315,28.008 14.315,28.008 C14.893,28.586 15.245,28.874 16.001,28.874 C16.758,28.874 17.108,28.586 17.685,28.008 C17.685,28.008 29.181,16.039 29.299,15.919 C32.958,12.268 32.958,6.350 29.299,2.701 C27.484,0.889 25.455,-0.010 22.981,-0.010 C20.618,-0.010 17.981,1.874 16.012,3.874 C13.981,1.874 11.427,-0.001 8.981,-0.001 C8.981,-0.001 8.981,-0.001 8.981,-0.001 Z" id="path-1" class="cls-2" fill-rule="evenodd"/>
</svg>
