<svg xmlns="http://www.w3.org/2000/svg" xmlns:xlink="http://www.w3.org/1999/xlink" preserveAspectRatio="xMidYMid" width="23" height="23" viewBox="0 0 23 23">
  <defs>
    <style>

      .cls-2 {
        fill: #c5cdd1;
      }
    </style>
  </defs>
  <path d="M21.617,4.924 C21.567,4.975 21.443,5.100 21.288,5.256 C21.288,5.256 17.185,1.350 17.185,1.350 C17.436,1.098 17.598,0.937 17.632,0.904 C17.842,0.694 18.617,0.007 19.681,0.007 C20.360,0.007 20.996,0.287 21.573,0.840 C22.228,1.469 22.568,2.143 22.580,2.843 C22.593,3.551 22.269,4.251 21.617,4.924 ZM10.910,15.561 C10.847,15.622 10.770,15.668 10.686,15.693 C10.047,15.885 6.160,17.142 6.121,17.155 C6.067,17.171 6.012,17.180 5.957,17.180 C5.818,17.180 5.681,17.126 5.579,17.023 C5.437,16.883 5.385,16.672 5.444,16.479 C5.455,16.442 6.605,12.672 6.835,11.823 C6.859,11.731 6.908,11.648 6.974,11.580 C6.974,11.580 13.716,4.824 16.478,2.059 C16.478,2.059 20.580,5.963 20.580,5.963 C17.939,8.596 11.245,15.230 10.910,15.561 ZM4.606,11.583 C4.479,12.053 3.975,13.742 3.234,16.175 C2.955,17.085 3.202,18.063 3.864,18.716 C4.343,19.197 4.887,19.400 5.566,19.400 C5.820,19.400 6.072,19.361 6.355,19.274 C6.486,19.232 10.087,18.172 10.704,17.987 C11.099,17.871 11.464,17.657 11.768,17.359 C12.032,17.099 15.962,13.265 18.989,10.259 C18.989,10.259 18.970,21.052 18.970,21.052 C18.970,21.880 18.301,22.593 17.476,22.593 C17.476,22.593 1.333,22.593 1.333,22.593 C0.508,22.593 0.011,21.838 0.011,21.010 C0.011,21.010 0.011,3.997 0.011,3.997 C0.011,3.170 0.508,2.593 1.333,2.593 C1.333,2.593 13.121,2.593 13.121,2.593 C13.121,2.593 5.257,10.453 5.247,10.463 C4.938,10.779 4.716,11.170 4.606,11.583 Z" id="path-1" class="cls-2" fill-rule="evenodd"/>
</svg>
