<svg xmlns="http://www.w3.org/2000/svg" xmlns:xlink="http://www.w3.org/1999/xlink" preserveAspectRatio="xMidYMid" width="32" height="29" viewBox="0 0 32 29">
  <defs>
    <style>

      .cls-2 {
        fill: #ffffff;
      }
    </style>
  </defs>
  <path d="M31.685,9.489 C31.685,9.489 21.040,17.819 21.040,17.819 C20.847,17.970 20.584,17.997 20.362,17.890 C20.142,17.781 20.002,17.557 20.002,17.311 C20.002,17.311 20.002,11.797 20.002,11.797 C8.380,12.084 8.218,20.421 8.191,20.770 C8.166,21.088 7.941,21.330 7.632,21.355 C7.312,21.325 7.057,21.070 7.047,20.744 C7.037,20.475 6.626,14.113 10.828,9.763 C13.187,7.322 15.939,5.797 20.002,5.675 C20.002,5.675 20.002,0.651 20.002,0.651 C20.002,0.406 20.142,0.181 20.362,0.073 C20.584,-0.034 20.846,-0.008 21.040,0.144 C21.040,0.144 31.685,8.473 31.685,8.473 C31.841,8.595 31.933,8.782 31.933,8.981 C31.933,9.180 31.841,9.367 31.685,9.489 ZM7.584,21.365 C7.601,21.365 7.615,21.356 7.632,21.355 C7.647,21.357 7.660,21.364 7.676,21.365 C7.681,21.365 7.580,21.365 7.584,21.365 ZM8.309,8.799 C8.309,8.799 3.643,8.799 3.643,8.799 C3.288,8.799 2.999,9.088 2.999,9.442 C2.999,9.442 2.999,25.170 2.999,25.170 C2.999,25.525 3.288,25.813 3.643,25.813 C3.643,25.813 26.351,25.813 26.351,25.813 C26.706,25.813 26.994,25.525 26.994,25.170 C26.994,25.170 26.994,16.056 26.994,16.056 C26.994,16.056 30.000,13.642 30.000,13.642 C30.000,13.642 30.000,26.889 30.000,26.889 C30.000,27.953 29.134,28.819 28.070,28.819 C28.070,28.819 1.924,28.819 1.924,28.819 C0.859,28.819 -0.007,27.953 -0.007,26.889 C-0.007,26.889 -0.007,7.755 -0.007,7.755 C-0.007,6.691 0.859,5.824 1.924,5.824 C1.924,5.824 11.153,5.824 11.153,5.824 C10.525,6.206 9.146,7.468 8.309,8.799 Z" id="path-1" class="cls-2" fill-rule="evenodd"/>
</svg>
