<?xml version="1.0" encoding="UTF-8"?><!DOCTYPE svg PUBLIC "-//W3C//DTD SVG 1.1//EN" "http://www.w3.org/Graphics/SVG/1.1/DTD/svg11.dtd"><svg xmlns="http://www.w3.org/2000/svg"><defs><style>.cls-2{fill:#fff}</style><style>.cls-2{fill:#fff}</style><style>.cls-2{fill:#fff}</style></defs><symbol id="Clock" viewBox="0 0 33 32"><path d="M17.975 8.146a.698.698 0 0 0-.708-.707h-1.602a.698.698 0 0 0-.708.707v7.783H9.66a.698.698 0 0 0-.707.708v1.665c0 .398.309.708.707.708h7.607a.7.7 0 0 0 .708-.708V8.146zm10.978 7.857c0 7.174-5.829 13.009-12.997 13.009S2.959 23.177 2.959 16.003 8.788 2.994 15.956 2.994s12.997 5.835 12.997 13.009zm3.111.004C32.064 7.175 24.884.01 16.035.01S.006 7.175.006 16.007s7.18 15.997 16.029 15.997 16.029-7.165 16.029-15.997z" id="path-1" class="cls-2" fill-rule="evenodd"/></symbol><symbol id="Heart" viewBox="0 0 33 29"><path d="M22.969 2.995c1.634 0 2.928.566 4.199 1.836a6.287 6.287 0 0 1 1.863 4.483c0 1.694-.661 3.287-1.892 4.515-.111.114-8.465 8.811-11.144 11.601-2.264-2.419-10.207-10.907-11.163-11.863a6.298 6.298 0 0 1-1.863-4.486 6.297 6.297 0 0 1 1.865-4.485c1.102-1.101 2.377-1.591 4.135-1.591.561 0 2.166.293 4.926 3.012A2.997 2.997 0 0 0 16 6.88h.024a2.995 2.995 0 0 0 2.115-.897c2.169-2.205 3.958-2.988 4.83-2.988m0-3c-2.363 0-5.001 1.884-6.969 3.885C13.969 1.879 11.415.005 8.969.005c-2.392 0-4.5.715-6.256 2.469a9.331 9.331 0 0 0 0 13.217c1.045 1.045 11.59 12.322 11.59 12.322.577.578.929.866 1.686.866.757 0 1.107-.288 1.684-.866 0 0 11.496-11.969 11.614-12.089a9.33 9.33 0 0 0 0-13.217C27.472.894 25.443-.005 22.969-.005z" id="path-1" class="cls-2" fill-rule="evenodd"/></symbol><symbol id="Share" viewBox="0 0 32 29"><path d="M31.685 9.489l-10.645 8.33a.645.645 0 0 1-.678.071.646.646 0 0 1-.36-.579v-5.514C8.38 12.084 8.218 20.421 8.191 20.77c-.025.318-.25.56-.559.585a.637.637 0 0 1-.585-.611c-.01-.269-.421-6.631 3.781-10.981 2.359-2.441 5.111-3.966 9.174-4.088V.651A.643.643 0 0 1 21.04.144l10.645 8.329a.645.645 0 0 1 0 1.016zM7.584 21.365c.017 0 .031-.009.048-.01.015.002.028.009.044.01h-.092zm.725-12.566H3.643a.645.645 0 0 0-.644.643V25.17c0 .355.289.643.644.643h22.708a.643.643 0 0 0 .643-.643v-9.114L30 13.642v13.247c0 1.064-.866 1.93-1.93 1.93H1.924a1.933 1.933 0 0 1-1.931-1.93V7.755c0-1.064.866-1.931 1.931-1.931h9.229c-.628.382-2.007 1.644-2.844 2.975z" id="path-1" class="cls-2" fill-rule="evenodd"/></symbol></svg>