<svg xmlns="http://www.w3.org/2000/svg" preserveAspectRatio="xMidYMid" width="13" height="20" viewBox="0 0 13 20"><defs><style>.cls-2{fill:#fff}</style></defs><path d="M12.806 18.293L7.2 9.712l1.154-2.217h1.484c.108 0 .219-.114.329-.228l2.749-4.943c.218-.512-.386-.739-.605-.342l-2.473 4.15c-.33.512-1.099.114-.661-.57l2.365-4.205c.219-.398-.331-.796-.659-.285L8.518 5.164a.423.423 0 0 1-.769-.339L10.057.62c.274-.512-.275-.855-.495-.398L6.651 4.994c-.111.229-.111.343-.056.398l.769 1.421-.989 1.536-.989-1.48s1.43-1.76-.55-4.092C2.913.391 1.264-.346.495.221c-.605.454-.824 2.671.44 5.171 1.264 2.559 3.022 2.217 3.463 2.162l1.154 2.102-5.331 8.581c-.495.796 0 1.363.329 1.532.33.173 1.045.398 1.539-.567l4.286-8.013 4.727 8.297c.274.456.878.681 1.319.342.219-.17.88-.74.385-1.535" id="path-1" class="cls-2" fill-rule="evenodd"/></svg>