<svg xmlns="http://www.w3.org/2000/svg" xmlns:xlink="http://www.w3.org/1999/xlink" preserveAspectRatio="xMidYMid" width="13" height="20" viewBox="0 0 13 20">
  <defs>
    <style>

      .cls-2 {
        fill: #ffffff;
      }
    </style>
  </defs>
  <path d="M12.806,18.293 C12.806,18.293 7.200,9.712 7.200,9.712 C7.200,9.712 8.354,7.495 8.354,7.495 C8.354,7.495 9.838,7.495 9.838,7.495 C9.946,7.495 10.057,7.381 10.167,7.267 C10.167,7.267 12.916,2.324 12.916,2.324 C13.134,1.812 12.530,1.585 12.311,1.982 C12.311,1.982 9.838,6.132 9.838,6.132 C9.508,6.644 8.739,6.246 9.177,5.562 C9.177,5.562 11.542,1.357 11.542,1.357 C11.761,0.959 11.211,0.561 10.883,1.072 C10.883,1.072 8.518,5.164 8.518,5.164 C8.134,5.849 7.475,5.223 7.749,4.825 C7.749,4.825 10.057,0.620 10.057,0.620 C10.331,0.108 9.782,-0.235 9.562,0.222 C9.562,0.222 6.651,4.994 6.651,4.994 C6.540,5.223 6.540,5.337 6.595,5.392 C6.595,5.392 7.364,6.813 7.364,6.813 C7.364,6.813 6.375,8.349 6.375,8.349 C6.375,8.349 5.386,6.869 5.386,6.869 C5.386,6.869 6.816,5.109 4.836,2.777 C2.913,0.391 1.264,-0.346 0.495,0.221 C-0.110,0.675 -0.329,2.892 0.935,5.392 C2.199,7.951 3.957,7.609 4.398,7.554 C4.398,7.554 5.552,9.656 5.552,9.656 C5.552,9.656 0.221,18.237 0.221,18.237 C-0.274,19.033 0.221,19.600 0.550,19.769 C0.880,19.942 1.595,20.167 2.089,19.202 C2.089,19.202 6.375,11.189 6.375,11.189 C6.375,11.189 11.102,19.486 11.102,19.486 C11.376,19.942 11.980,20.167 12.421,19.828 C12.640,19.658 13.301,19.088 12.806,18.293 " id="path-1" class="cls-2" fill-rule="evenodd"/>
</svg>
