<svg xmlns="http://www.w3.org/2000/svg" preserveAspectRatio="xMidYMid" width="33" height="29" viewBox="0 0 33 29"><defs><style>.cls-2{fill:#ea6060}</style></defs><path d="M8.981-.001c-2.391 0-4.5.716-6.255 2.47a9.33 9.33 0 0 0 0 13.217C3.77 16.73 14.315 28.008 14.315 28.008c.578.578.93.866 1.686.866.757 0 1.107-.288 1.684-.866 0 0 11.496-11.969 11.614-12.089a9.33 9.33 0 0 0 0-13.218C27.484.889 25.455-.01 22.981-.01c-2.363 0-5 1.884-6.969 3.884-2.031-2-4.585-3.875-7.031-3.875z" id="path-1" class="cls-2" fill-rule="evenodd"/></svg>