<svg xmlns="http://www.w3.org/2000/svg" preserveAspectRatio="xMidYMid" width="23" height="23" viewBox="0 0 23 23"><defs><style>.cls-2{fill:#c5cdd1}</style></defs><path d="M21.617 4.924l-.329.332-4.103-3.906c.251-.252.413-.413.447-.446.21-.21.985-.897 2.049-.897.679 0 1.315.28 1.892.833.655.629.995 1.303 1.007 2.003.013.708-.311 1.408-.963 2.081zM10.91 15.561a.548.548 0 0 1-.224.132c-.639.192-4.526 1.449-4.565 1.462a.531.531 0 0 1-.542-.132.543.543 0 0 1-.135-.544c.011-.037 1.161-3.807 1.391-4.656a.55.55 0 0 1 .139-.243s6.742-6.756 9.504-9.521l4.102 3.904a6406.867 6406.867 0 0 1-9.67 9.598zm-6.304-3.978c-.127.47-.631 2.159-1.372 4.592a2.525 2.525 0 0 0 .63 2.541c.479.481 1.023.684 1.702.684.254 0 .506-.039.789-.126.131-.042 3.732-1.102 4.349-1.287.395-.116.76-.33 1.064-.628.264-.26 4.194-4.094 7.221-7.1l-.019 10.793c0 .828-.669 1.541-1.494 1.541H1.333c-.825 0-1.322-.755-1.322-1.583V3.997c0-.827.497-1.404 1.322-1.404h11.788l-7.874 7.87a2.554 2.554 0 0 0-.641 1.12z" id="path-1" class="cls-2" fill-rule="evenodd"/></svg>