<svg xmlns="http://www.w3.org/2000/svg" preserveAspectRatio="xMidYMid" width="17" height="17" viewBox="0 0 17 17"><defs><style>.cls-2{fill:#b2b9bd}</style></defs><path d="M15.728 14.309l-3.942-3.921a6.445 6.445 0 0 0 1.302-3.884c0-3.596-2.931-6.51-6.547-6.51-3.615 0-6.546 2.914-6.546 6.51 0 3.596 2.931 6.51 6.546 6.51a6.54 6.54 0 0 0 3.808-1.221l3.955 3.933a1.011 1.011 0 0 0 1.424 0 .999.999 0 0 0 0-1.417zm-9.187-3.298c-2.503 0-4.532-2.017-4.532-4.507 0-2.489 2.029-4.508 4.532-4.508s4.532 2.019 4.532 4.508c0 2.49-2.029 4.507-4.532 4.507z" id="path-1" class="cls-2" fill-rule="evenodd"/></svg>