<svg xmlns="http://www.w3.org/2000/svg" preserveAspectRatio="xMidYMid" width="32" height="29" viewBox="0 0 32 29"><defs><style>.cls-2{fill:#fff}</style></defs><path d="M31.685 9.489l-10.645 8.33a.645.645 0 0 1-.678.071.646.646 0 0 1-.36-.579v-5.514C8.38 12.084 8.218 20.421 8.191 20.77c-.025.318-.25.56-.559.585a.637.637 0 0 1-.585-.611c-.01-.269-.421-6.631 3.781-10.981 2.359-2.441 5.111-3.966 9.174-4.088V.651A.643.643 0 0 1 21.04.144l10.645 8.329a.645.645 0 0 1 0 1.016zM7.584 21.365c.017 0 .031-.009.048-.01.015.002.028.009.044.01h-.092zm.725-12.566H3.643a.645.645 0 0 0-.644.643V25.17c0 .355.289.643.644.643h22.708a.643.643 0 0 0 .643-.643v-9.114L30 13.642v13.247c0 1.064-.866 1.93-1.93 1.93H1.924a1.933 1.933 0 0 1-1.931-1.93V7.755c0-1.064.866-1.931 1.931-1.931h9.229c-.628.382-2.007 1.644-2.844 2.975z" id="path-1" class="cls-2" fill-rule="evenodd"/></svg>